<?xml version="1.0" encoding="utf-8"?>
<!-- Generator: Adobe Illustrator 16.0.0, SVG Export Plug-In . SVG Version: 6.00 Build 0)  -->
<!DOCTYPE svg PUBLIC "-//W3C//DTD SVG 1.1//EN" "http://www.w3.org/Graphics/SVG/1.1/DTD/svg11.dtd">
<svg version="1.1" id="Layer_1" xmlns="http://www.w3.org/2000/svg" xmlns:xlink="http://www.w3.org/1999/xlink" x="0px" y="0px"
	 width="209.333px" height="150px" viewBox="0 0 209.333 150" enable-background="new 0 0 209.333 150" xml:space="preserve">
<g>
	<path display="none" fill="#FFFFFF" d="M-1.13,178.438c0-70.133,0-140.267,0-210.4c70.344,0,140.688,0,211.031,0
		c0,70.133,0,140.267,0,210.4C139.557,178.438,69.213,178.438-1.13,178.438z M8,14.355c0,39.313,0,78.526,0,117.713
		c10.859,0,21.639,0,32.537,0c0-28.34,0-56.6,0-84.861c0.326,0.275,0.496,0.572,0.649,0.876
		c13.966,27.687,27.935,55.374,41.88,83.072c0.386,0.768,0.828,1.014,1.674,1.012c13.465-0.027,26.93-0.049,40.396,0.022
		c1.489,0.008,2.161-0.454,2.804-1.77c13.469-27.582,26.992-55.136,40.508-82.695c0.128-0.26,0.289-0.503,0.434-0.754
		c0.065,0.019,0.13,0.038,0.194,0.057c0,28.343,0,56.686,0,85.053c10.635,0,21.167,0,31.692,0c0-39.28,0-78.494,0-117.725
		C136.482,14.355,72.281,14.355,8,14.355z"/>
	<path fill-rule="evenodd" clip-rule="evenodd" fill="#FFFFFF" d="M8,14.355c64.281,0,128.482,0,192.768,0
		c0,39.231,0,78.444,0,117.725c-10.525,0-21.058,0-31.692,0c0-28.367,0-56.71,0-85.053c-0.064-0.019-0.129-0.038-0.194-0.057
		c-0.145,0.251-0.306,0.495-0.434,0.754c-13.516,27.559-27.039,55.113-40.508,82.695c-0.643,1.315-1.314,1.777-2.804,1.77
		c-13.466-0.071-26.931-0.05-40.396-0.022c-0.846,0.002-1.288-0.244-1.674-1.012c-13.945-27.698-27.914-55.385-41.88-83.072
		c-0.153-0.304-0.323-0.601-0.649-0.876c0,28.261,0,56.521,0,84.861c-10.898,0-21.678,0-32.537,0C8,92.882,8,53.668,8,14.355z
		 M116.27,110.457c0.069,0.015,0.139,0.029,0.207,0.045c10.917-21.342,21.834-42.683,32.797-64.113c-11.097,0-22.036,0-33.004,0
		C116.27,67.797,116.27,89.127,116.27,110.457z M62.831,45.967c10.51,21.372,20.938,42.58,31.367,63.787
		c0.045-0.028,0.089-0.057,0.134-0.085c0-21.221,0-42.441,0-63.702C83.845,45.967,73.445,45.967,62.831,45.967z"/>
	<path display="none" fill-rule="evenodd" clip-rule="evenodd" fill="#FFFFFF" d="M116.27,110.457c0-21.33,0-42.66,0-64.068
		c10.968,0,21.907,0,33.004,0c-10.963,21.43-21.88,42.771-32.797,64.113C116.409,110.486,116.339,110.472,116.27,110.457z"/>
	<path display="none" fill-rule="evenodd" clip-rule="evenodd" fill="#FFFFFF" d="M62.831,45.967c10.614,0,21.015,0,31.501,0
		c0,21.261,0,42.481,0,63.702c-0.045,0.028-0.089,0.057-0.134,0.085C83.769,88.547,73.34,67.339,62.831,45.967z"/>
</g>
</svg>
