<?xml version="1.0" encoding="utf-8"?>
<!-- Generator: Adobe Illustrator 19.0.0, SVG Export Plug-In . SVG Version: 6.00 Build 0)  -->
<svg version="1.1" id="Layer_1" xmlns="http://www.w3.org/2000/svg" xmlns:xlink="http://www.w3.org/1999/xlink" x="0px" y="0px"
	 viewBox="-192 345.9 209.3 150" style="enable-background:new -192 345.9 209.3 150;" xml:space="preserve">
<style type="text/css">
	.st0{display:none;fill:#FFFFFF;stroke:#000000;}
	.st1{fill:#FFFFFF;stroke:#000000;}
	.st2{font-family:'ArialMT';}
	.st3{font-size:29.5343px;}
</style>
<g>
	<path class="st0" d="M-193.1,513.3c0-70.1,0-140.3,0-210.4c70.3,0,140.7,0,211,0c0,70.1,0,140.3,0,210.4
		C-52.4,513.3-122.8,513.3-193.1,513.3z M-184,349.2c0,39.3,0,78.5,0,117.7c10.9,0,21.6,0,32.5,0c0-28.3,0-56.6,0-84.9
		c0.3,0.3,0.5,0.6,0.6,0.9c14,27.7,27.9,55.4,41.9,83.1c0.4,0.8,0.8,1,1.7,1c13.5,0,26.9,0,40.4,0c1.5,0,2.2-0.5,2.8-1.8
		c13.5-27.6,27-55.1,40.5-82.7c0.1-0.3,0.3-0.5,0.4-0.8c0.1,0,0.1,0,0.2,0.1c0,28.3,0,56.7,0,85.1c10.6,0,21.2,0,31.7,0
		c0-39.3,0-78.5,0-117.7C-55.5,349.2-119.7,349.2-184,349.2z"/>
	<path class="st1" d="M-184,349.2c64.3,0,128.5,0,192.8,0c0,39.2,0,78.4,0,117.7c-10.5,0-21.1,0-31.7,0c0-28.4,0-56.7,0-85.1
		c-0.1,0-0.1,0-0.2-0.1c-0.1,0.3-0.3,0.5-0.4,0.8c-13.5,27.6-27,55.1-40.5,82.7c-0.6,1.3-1.3,1.8-2.8,1.8c-13.5-0.1-26.9,0-40.4,0
		c-0.8,0-1.3-0.2-1.7-1c-13.9-27.7-27.9-55.4-41.9-83.1c-0.2-0.3-0.3-0.6-0.6-0.9c0,28.3,0,56.5,0,84.9c-10.9,0-21.7,0-32.5,0
		C-184,427.8-184,388.6-184,349.2z M-75.7,445.3c0.1,0,0.1,0,0.2,0c10.9-21.3,21.8-42.7,32.8-64.1c-11.1,0-22,0-33,0
		C-75.7,402.7-75.7,424-75.7,445.3z M-129.2,380.9c10.5,21.4,20.9,42.6,31.4,63.8c0,0,0.1-0.1,0.1-0.1c0-21.2,0-42.4,0-63.7
		C-108.2,380.9-118.6,380.9-129.2,380.9z"/>
	<path class="st0" d="M-75.7,445.3c0-21.3,0-42.7,0-64.1c11,0,21.9,0,33,0c-11,21.4-21.9,42.8-32.8,64.1
		C-75.6,445.4-75.7,445.4-75.7,445.3z"/>
	<path class="st0" d="M-129.2,380.9c10.6,0,21,0,31.5,0c0,21.3,0,42.5,0,63.7c0,0-0.1,0.1-0.1,0.1
		C-108.2,423.4-118.7,402.2-129.2,380.9z"/>
</g>
<text transform="matrix(1 0 0 1 -184.0013 483.9726)" class="st1 st2 st3">TIM VISCHER.</text>
</svg>
